<svg width="1482" height="435" viewBox="0 0 1482 435" fill="none" xmlns="http://www.w3.org/2000/svg">
<path d="M268.819 425.234H356.987C359.886 425.234 362.236 422.883 362.236 419.984V395.838C362.236 394.488 361.716 393.19 360.784 392.214L33.05 48.8733C32.0594 47.8355 30.6873 47.2483 29.2526 47.2483H5.24997C2.35059 47.2483 0.000152588 49.5987 0.000152588 52.4981V419.984C0.000152588 422.883 2.35059 425.234 5.24997 425.234H29.3244C30.7168 425.234 32.0521 424.681 33.0366 423.696L77.2095 379.523C78.1941 378.539 78.7472 377.203 78.7472 375.811V248.968C78.7472 244.283 84.4173 241.945 87.72 245.267L265.096 423.685C266.081 424.677 267.421 425.234 268.819 425.234Z" fill="black"/>
<path d="M140.666 0H52.4978C49.5985 0 47.248 2.35042 47.248 5.2498V29.3954C47.248 30.7455 47.7682 32.0437 48.7004 33.0203L376.434 376.361C377.425 377.398 378.797 377.986 380.232 377.986H404.234C407.134 377.986 409.484 375.635 409.484 372.736V5.2498C409.484 2.35042 407.134 0 404.234 0H380.16C378.768 0 377.432 0.553101 376.448 1.53763L332.275 45.7106C331.29 46.6951 330.737 48.0304 330.737 49.4227V176.266C330.737 180.95 325.067 183.289 321.764 179.967L144.389 1.54853C143.403 0.557335 142.063 0 140.666 0Z" fill="black"/>
<path d="M404.234 393.735H383.235C380.336 393.735 377.985 396.085 377.985 398.985V419.984C377.985 422.883 380.336 425.234 383.235 425.234H404.234C407.134 425.234 409.484 422.883 409.484 419.984V398.985C409.484 396.085 407.134 393.735 404.234 393.735Z" fill="black"/>
<path d="M26.249 0H5.2498C2.35042 0 0 2.35042 0 5.2498V26.249C0 29.1484 2.35042 31.4988 5.2498 31.4988H26.249C29.1484 31.4988 31.4988 29.1484 31.4988 26.249V5.2498C31.4988 2.35042 29.1484 0 26.249 0Z" fill="black"/>
<path d="M491.475 71.0735H523.743L596.639 202.616V71.0735H621.487V238.534H589.22L516.324 108.758V238.534H491.475V71.0735ZM660.575 160.574C660.575 152.488 662.538 145.108 666.463 138.435C670.467 131.761 675.806 126.462 682.479 122.536C689.153 118.532 696.533 116.53 704.619 116.53H731.234C739.32 116.53 746.7 118.532 753.373 122.536C760.047 126.462 765.346 131.761 769.272 138.435C773.276 145.108 775.278 152.488 775.278 160.574V194.49C775.278 202.577 773.276 209.957 769.272 216.63C765.346 223.303 760.047 228.642 753.373 232.646C746.7 236.571 739.32 238.534 731.234 238.534H704.619C696.533 238.534 689.153 236.571 682.479 232.646C675.806 228.642 670.467 223.303 666.463 216.63C662.538 209.957 660.575 202.577 660.575 194.49V160.574ZM685.423 194.255C685.423 199.593 687.308 204.186 691.076 208.033C694.845 211.802 699.359 213.686 704.619 213.686H731.234C736.572 213.686 741.087 211.802 744.777 208.033C748.545 204.186 750.429 199.593 750.429 194.255V160.81C750.429 155.471 748.545 150.918 744.777 147.149C741.087 143.302 736.572 141.379 731.234 141.379H704.619C699.359 141.379 694.845 143.302 691.076 147.149C687.308 150.918 685.423 155.471 685.423 160.81V194.255ZM825.2 116.53L857.821 202.616L890.206 116.53H916.35L869.833 238.534H845.456L799.057 116.53H825.2ZM940.129 160.574C940.129 152.488 942.091 145.108 946.017 138.435C950.021 131.761 955.359 126.462 962.033 122.536C968.706 118.532 976.086 116.53 984.172 116.53H1010.79C1018.87 116.53 1026.25 118.532 1032.93 122.536C1039.6 126.462 1044.9 131.761 1048.82 138.435C1052.83 145.108 1054.83 152.488 1054.83 160.574V194.49C1054.83 202.577 1052.83 209.957 1048.82 216.63C1044.9 223.303 1039.6 228.642 1032.93 232.646C1026.25 236.571 1018.87 238.534 1010.79 238.534H984.172C976.086 238.534 968.706 236.571 962.033 232.646C955.359 228.642 950.021 223.303 946.017 216.63C942.091 209.957 940.129 202.577 940.129 194.49V160.574ZM964.977 194.255C964.977 199.593 966.861 204.186 970.63 208.033C974.398 211.802 978.912 213.686 984.172 213.686H1010.79C1016.13 213.686 1020.64 211.802 1024.33 208.033C1028.1 204.186 1029.98 199.593 1029.98 194.255V160.81C1029.98 155.471 1028.1 150.918 1024.33 147.149C1020.64 143.302 1016.13 141.379 1010.79 141.379H984.172C978.912 141.379 974.398 143.302 970.63 147.149C966.861 150.918 964.977 155.471 964.977 160.81V194.255ZM1091.56 150.682C1091.56 144.401 1093.13 138.67 1096.27 133.489C1099.49 128.307 1103.73 124.185 1108.99 121.123C1114.33 118.061 1120.22 116.53 1126.66 116.53H1153.86V141.261H1126.66C1123.83 141.261 1121.4 142.242 1119.36 144.205C1117.39 146.089 1116.41 148.405 1116.41 151.153V238.534H1091.56V150.682ZM1205.31 116.53L1236.99 201.085L1269.38 116.53H1296.82L1232.05 284.462H1204.84L1223.8 234.53L1178.94 116.53H1205.31Z" fill="black"/>
<path d="M482.121 402.441V344.829H490.9V402.441H482.121ZM548.856 402.441L515.151 365.131L515.387 371.401V402.441H506.608V344.751H507.705L541.567 382.532L541.253 375.948V344.829H550.032V402.441H548.856ZM607.66 402.441L573.955 365.131L574.19 371.401V402.441H565.411V344.751H566.508L600.37 382.532L600.056 375.948V344.829H608.835V402.441H607.66ZM651.167 403.225C647.248 403.225 643.538 402.546 640.037 401.187C636.588 399.829 633.531 397.869 630.866 395.308C628.201 392.696 626.084 389.56 624.517 385.902C623.001 382.244 622.243 378.116 622.243 373.518C622.243 368.867 623.001 364.713 624.517 361.055C626.084 357.397 628.201 354.288 630.866 351.727C633.583 349.167 636.666 347.233 640.115 345.927C643.616 344.568 647.3 343.889 651.167 343.889C655.034 343.889 658.692 344.568 662.141 345.927C665.642 347.233 668.725 349.167 671.39 351.727C674.107 354.288 676.224 357.397 677.739 361.055C679.307 364.713 680.091 368.867 680.091 373.518C680.091 378.116 679.307 382.244 677.739 385.902C676.224 389.56 674.133 392.696 671.468 395.308C668.803 397.869 665.72 399.829 662.219 401.187C658.77 402.546 655.086 403.225 651.167 403.225ZM651.167 395.308C654.72 395.308 657.986 394.472 660.965 392.8C663.944 391.128 666.321 388.698 668.098 385.51C669.875 382.271 670.763 378.299 670.763 373.596C670.763 368.841 669.875 364.869 668.098 361.682C666.321 358.442 663.944 356.012 660.965 354.392C658.039 352.72 654.773 351.884 651.167 351.884C647.561 351.884 644.269 352.72 641.291 354.392C638.364 356.012 636.013 358.442 634.236 361.682C632.459 364.869 631.571 368.841 631.571 373.596C631.571 378.299 632.486 382.271 634.314 385.51C636.143 388.698 638.547 391.128 641.526 392.8C644.504 394.472 647.718 395.308 651.167 395.308ZM711.332 402.441L684.682 344.829H694.636L711.881 384.413L729.204 344.829H739.08L712.508 402.441H711.332ZM760.895 344.751H761.757L789.505 402.441H779.394L774.456 391.154H748.04L743.102 402.441H733.304L760.895 344.751ZM761.287 361.447L757.838 369.285L751.568 383.237H771.007L764.814 369.363L761.444 361.447H761.287ZM821.828 402.99C817.23 402.99 813.128 402.206 809.522 400.639C805.969 399.071 802.938 396.928 800.429 394.211C797.973 391.442 796.092 388.306 794.786 384.805C793.532 381.252 792.905 377.489 792.905 373.518C792.905 369.181 793.61 365.209 795.021 361.603C796.484 357.998 798.522 354.889 801.135 352.276C803.748 349.611 806.857 347.547 810.463 346.083C814.068 344.62 818.04 343.889 822.377 343.889C825.199 343.889 827.707 344.176 829.902 344.751C832.097 345.326 833.899 345.979 835.31 346.71C836.721 347.39 837.61 347.938 837.975 348.357L834.135 356.195C832.724 354.941 830.973 353.922 828.883 353.138C826.845 352.354 824.441 351.962 821.672 351.962C818.066 351.962 814.8 352.851 811.874 354.627C808.999 356.404 806.7 358.912 804.976 362.152C803.304 365.392 802.467 369.233 802.467 373.675C802.467 377.594 803.199 381.173 804.662 384.413C806.125 387.601 808.268 390.161 811.09 392.095C813.964 394.028 817.439 394.995 821.515 394.995C823.762 394.995 825.956 394.708 828.099 394.133C830.294 393.506 832.541 392.487 834.84 391.076L837.427 398.522C836.747 399.149 835.598 399.829 833.978 400.56C832.358 401.24 830.477 401.814 828.334 402.285C826.244 402.755 824.075 402.99 821.828 402.99ZM851.184 402.441V344.829H859.963V402.441H851.184ZM902.853 403.225C898.933 403.225 895.223 402.546 891.722 401.187C888.273 399.829 885.216 397.869 882.551 395.308C879.886 392.696 877.77 389.56 876.202 385.902C874.687 382.244 873.929 378.116 873.929 373.518C873.929 368.867 874.687 364.713 876.202 361.055C877.77 357.397 879.886 354.288 882.551 351.727C885.269 349.167 888.352 347.233 891.801 345.927C895.302 344.568 898.986 343.889 902.853 343.889C906.72 343.889 910.378 344.568 913.826 345.927C917.328 347.233 920.411 349.167 923.076 351.727C925.793 354.288 927.909 357.397 929.425 361.055C930.992 364.713 931.776 368.867 931.776 373.518C931.776 378.116 930.992 382.244 929.425 385.902C927.909 389.56 925.819 392.696 923.154 395.308C920.489 397.869 917.406 399.829 913.905 401.187C910.456 402.546 906.772 403.225 902.853 403.225ZM902.853 395.308C906.406 395.308 909.672 394.472 912.651 392.8C915.629 391.128 918.007 388.698 919.784 385.51C921.56 382.271 922.449 378.299 922.449 373.596C922.449 368.841 921.56 364.869 919.784 361.682C918.007 358.442 915.629 356.012 912.651 354.392C909.724 352.72 906.458 351.884 902.853 351.884C899.247 351.884 895.955 352.72 892.976 354.392C890.05 356.012 887.698 358.442 885.922 361.682C884.145 364.869 883.257 368.841 883.257 373.596C883.257 378.299 884.171 382.271 886 385.51C887.829 388.698 890.233 391.128 893.211 392.8C896.19 394.472 899.404 395.308 902.853 395.308ZM899.796 340.44L896.425 335.266L911.788 323.587L916.491 330.093L899.796 340.44ZM987.439 402.441L953.734 365.131L953.969 371.401V402.441H945.19V344.751H946.287L980.149 382.532L979.835 375.948V344.829H988.614V402.441H987.439ZM1054.07 402.99C1049.47 402.99 1045.37 402.206 1041.76 400.639C1038.21 399.071 1035.18 396.928 1032.67 394.211C1030.22 391.442 1028.34 388.306 1027.03 384.805C1025.77 381.252 1025.15 377.489 1025.15 373.518C1025.15 369.181 1025.85 365.209 1027.26 361.603C1028.73 357.998 1030.76 354.889 1033.38 352.276C1035.99 349.611 1039.1 347.547 1042.71 346.083C1046.31 344.62 1050.28 343.889 1054.62 343.889C1057.44 343.889 1059.95 344.176 1062.14 344.751C1064.34 345.326 1066.14 345.979 1067.55 346.71C1068.96 347.39 1069.85 347.938 1070.22 348.357L1066.38 356.195C1064.97 354.941 1063.22 353.922 1061.13 353.138C1059.09 352.354 1056.68 351.962 1053.91 351.962C1050.31 351.962 1047.04 352.851 1044.12 354.627C1041.24 356.404 1038.94 358.912 1037.22 362.152C1035.55 365.392 1034.71 369.233 1034.71 373.675C1034.71 377.594 1035.44 381.173 1036.91 384.413C1038.37 387.601 1040.51 390.161 1043.33 392.095C1046.21 394.028 1049.68 394.995 1053.76 394.995C1056 394.995 1058.2 394.708 1060.34 394.133C1062.54 393.506 1064.78 392.487 1067.08 391.076L1069.67 398.522C1068.99 399.149 1067.84 399.829 1066.22 400.56C1064.6 401.24 1062.72 401.814 1060.58 402.285C1058.49 402.755 1056.32 402.99 1054.07 402.99ZM1106.83 403.225C1102.92 403.225 1099.21 402.546 1095.7 401.187C1092.26 399.829 1089.2 397.869 1086.53 395.308C1083.87 392.696 1081.75 389.56 1080.18 385.902C1078.67 382.244 1077.91 378.116 1077.91 373.518C1077.91 368.867 1078.67 364.713 1080.18 361.055C1081.75 357.397 1083.87 354.288 1086.53 351.727C1089.25 349.167 1092.33 347.233 1095.78 345.927C1099.28 344.568 1102.97 343.889 1106.83 343.889C1110.7 343.889 1114.36 344.568 1117.81 345.927C1121.31 347.233 1124.39 349.167 1127.06 351.727C1129.77 354.288 1131.89 357.397 1133.41 361.055C1134.97 364.713 1135.76 368.867 1135.76 373.518C1135.76 378.116 1134.97 382.244 1133.41 385.902C1131.89 389.56 1129.8 392.696 1127.14 395.308C1124.47 397.869 1121.39 399.829 1117.89 401.187C1114.44 402.546 1110.75 403.225 1106.83 403.225ZM1106.83 395.308C1110.39 395.308 1113.65 394.472 1116.63 392.8C1119.61 391.128 1121.99 388.698 1123.77 385.51C1125.54 382.271 1126.43 378.299 1126.43 373.596C1126.43 368.841 1125.54 364.869 1123.77 361.682C1121.99 358.442 1119.61 356.012 1116.63 354.392C1113.71 352.72 1110.44 351.884 1106.83 351.884C1103.23 351.884 1099.94 352.72 1096.96 354.392C1094.03 356.012 1091.68 358.442 1089.9 361.682C1088.13 364.869 1087.24 368.841 1087.24 373.596C1087.24 378.299 1088.15 382.271 1089.98 385.51C1091.81 388.698 1094.21 391.128 1097.19 392.8C1100.17 394.472 1103.39 395.308 1106.83 395.308ZM1191.42 402.441L1157.72 365.131L1157.95 371.401V402.441H1149.17V344.751H1150.27L1184.13 382.532L1183.82 375.948V344.829H1192.6V402.441H1191.42ZM1251.16 402.441L1224.5 344.829H1234.46L1251.7 384.413L1269.03 344.829H1278.9L1252.33 402.441H1251.16ZM1300.72 344.751H1301.58L1329.33 402.441H1319.22L1314.28 391.154H1287.86L1282.93 402.441H1273.13L1300.72 344.751ZM1301.11 361.447L1297.66 369.285L1291.39 383.237H1310.83L1304.64 369.363L1301.27 361.447H1301.11ZM1337.77 402.441V344.829H1346.62V394.603H1363.16V402.441H1337.77ZM1397.8 403.225C1393.88 403.225 1390.17 402.546 1386.67 401.187C1383.22 399.829 1380.17 397.869 1377.5 395.308C1374.84 392.696 1372.72 389.56 1371.15 385.902C1369.64 382.244 1368.88 378.116 1368.88 373.518C1368.88 368.867 1369.64 364.713 1371.15 361.055C1372.72 357.397 1374.84 354.288 1377.5 351.727C1380.22 349.167 1383.3 347.233 1386.75 345.927C1390.25 344.568 1393.94 343.889 1397.8 343.889C1401.67 343.889 1405.33 344.568 1408.78 345.927C1412.28 347.233 1415.36 349.167 1418.03 351.727C1420.74 354.288 1422.86 357.397 1424.38 361.055C1425.94 364.713 1426.73 368.867 1426.73 373.518C1426.73 378.116 1425.94 382.244 1424.38 385.902C1422.86 389.56 1420.77 392.696 1418.11 395.308C1415.44 397.869 1412.36 399.829 1408.86 401.187C1405.41 402.546 1401.72 403.225 1397.8 403.225ZM1397.8 395.308C1401.36 395.308 1404.62 394.472 1407.6 392.8C1410.58 391.128 1412.96 388.698 1414.73 385.51C1416.51 382.271 1417.4 378.299 1417.4 373.596C1417.4 368.841 1416.51 364.869 1414.73 361.682C1412.96 358.442 1410.58 356.012 1407.6 354.392C1404.68 352.72 1401.41 351.884 1397.8 351.884C1394.2 351.884 1390.91 352.72 1387.93 354.392C1385 356.012 1382.65 358.442 1380.87 361.682C1379.1 364.869 1378.21 368.841 1378.21 373.596C1378.21 378.299 1379.12 382.271 1380.95 385.51C1382.78 388.698 1385.18 391.128 1388.16 392.8C1391.14 394.472 1394.35 395.308 1397.8 395.308ZM1440.14 402.441V344.829H1453.23C1456.16 344.829 1458.98 345.117 1461.7 345.691C1464.47 346.266 1466.92 347.233 1469.06 348.592C1471.21 349.95 1472.91 351.753 1474.16 354C1475.41 356.247 1476.04 359.017 1476.04 362.309C1476.04 366.124 1475.15 369.442 1473.38 372.264C1471.6 375.085 1468.91 377.254 1465.3 378.769L1479.02 402.441H1468.91L1457.31 380.651C1456.42 380.703 1455.32 380.755 1454.01 380.807C1452.76 380.807 1451.72 380.807 1450.88 380.807H1448.68V402.441H1440.14ZM1448.68 373.675H1454.25C1457.12 373.675 1459.42 373.309 1461.15 372.577C1462.92 371.846 1464.28 370.931 1465.22 369.834C1466.16 368.684 1466.79 367.456 1467.11 366.15C1467.47 364.791 1467.65 363.537 1467.65 362.387C1467.65 359.827 1467.05 357.815 1465.85 356.352C1464.7 354.836 1463.08 353.765 1460.99 353.138C1458.95 352.459 1456.6 352.119 1453.94 352.119H1448.68V373.675Z" fill="black"/>
</svg>
